<?xml version="1.0" encoding="UTF-8" standalone="no"?>
<svg
   sodipodi:docname="banner.svg"
   inkscape:version="1.2.1 (9c6d41e410, 2022-07-14)"
   id="svg1871"
   version="1.1"
   viewBox="0 0 170.60492 52.599392"
   height="52.599392mm"
   width="170.60492mm"
   xmlns:inkscape="http://www.inkscape.org/namespaces/inkscape"
   xmlns:sodipodi="http://sodipodi.sourceforge.net/DTD/sodipodi-0.dtd"
   xmlns:xlink="http://www.w3.org/1999/xlink"
   xmlns="http://www.w3.org/2000/svg"
   xmlns:svg="http://www.w3.org/2000/svg"
   xmlns:rdf="http://www.w3.org/1999/02/22-rdf-syntax-ns#"
   xmlns:cc="http://creativecommons.org/ns#"
   xmlns:dc="http://purl.org/dc/elements/1.1/">
  <defs
     id="defs1865">
    <linearGradient
       inkscape:collect="always"
       xlink:href="#linearGradient1841"
       id="linearGradient1843"
       x1="199.56247"
       y1="186.09209"
       x2="220.5164"
       y2="186.09209"
       gradientUnits="userSpaceOnUse" />
    <linearGradient
       inkscape:collect="always"
       id="linearGradient1841">
      <stop
         style="stop-color:#02b287;stop-opacity:1"
         offset="0"
         id="stop1837" />
      <stop
         style="stop-color:#016f77;stop-opacity:1"
         offset="1"
         id="stop1839" />
    </linearGradient>
    <filter
       inkscape:collect="always"
       style="color-interpolation-filters:sRGB"
       id="filter2129"
       x="-0.022433615"
       width="1.0448672"
       y="-0.028407561"
       height="1.0568151">
      <feGaussianBlur
         inkscape:collect="always"
         stdDeviation="0.23608237"
         id="feGaussianBlur2131" />
    </filter>
    <filter
       inkscape:collect="always"
       style="color-interpolation-filters:sRGB"
       id="filter2293"
       x="-0.011985216"
       width="1.0239704"
       y="-0.01201482"
       height="1.0240296">
      <feGaussianBlur
         inkscape:collect="always"
         stdDeviation="0.085883649"
         id="feGaussianBlur2295" />
    </filter>
  </defs>
  <sodipodi:namedview
     inkscape:document-rotation="0"
     inkscape:window-maximized="1"
     inkscape:window-y="0"
     inkscape:window-x="0"
     inkscape:window-height="768"
     inkscape:window-width="1366"
     fit-margin-bottom="1"
     fit-margin-right="1"
     fit-margin-left="1"
     fit-margin-top="1"
     showgrid="false"
     inkscape:current-layer="layer1"
     inkscape:document-units="px"
     inkscape:cy="140.4112"
     inkscape:cx="245.46707"
     inkscape:zoom="0.98994949"
     inkscape:pageshadow="2"
     inkscape:pageopacity="0.0"
     borderopacity="1.0"
     bordercolor="#666666"
     pagecolor="#ffffff"
     id="base"
     inkscape:showpageshadow="0"
     inkscape:pagecheckerboard="1"
     inkscape:deskcolor="#d1d1d1" />
  <metadata
     id="metadata1868">
    <rdf:RDF>
      <cc:Work
         rdf:about="">
        <dc:format>image/svg+xml</dc:format>
        <dc:type
           rdf:resource="http://purl.org/dc/dcmitype/StillImage" />
      </cc:Work>
    </rdf:RDF>
  </metadata>
  <g
     transform="translate(-7.2511211,-14.832121)"
     id="layer1"
     inkscape:groupmode="layer"
     inkscape:label="Layer 1">
    <g
       id="g2703"
       transform="matrix(0.91441627,0,0,0.91441627,7.9197592,3.5202145)">
      <g
         style="opacity:0.99"
         transform="matrix(0.48432734,0,0,0.48432734,25.348815,-94.532024)"
         id="layer1-6"
         inkscape:label="Layer 1">
        <g
           style="display:inline"
           id="g2136"
           transform="matrix(3.5254315,0,0,3.5254315,-42.763903,-707.39294)">
          <rect
             style="display:inline;fill:url(#linearGradient1843);fill-opacity:1;stroke:none;stroke-width:2.13349;stroke-linecap:butt;stroke-linejoin:miter;stroke-miterlimit:4;stroke-dasharray:none;stroke-opacity:1;paint-order:normal"
             id="rect826"
             width="20.953932"
             height="20.953932"
             x="199.56247"
             y="175.61513"
             transform="rotate(44.999999)" />
          <path
             style="display:inline;fill:#ffffff;fill-opacity:0.196078;stroke:none;stroke-width:8.06359;stroke-linecap:butt;stroke-linejoin:miter;stroke-miterlimit:4;stroke-dasharray:none;stroke-opacity:1;paint-order:normal"
             d="M 64,8 8,64 64,9.1914062 120,64 Z"
             transform="matrix(0.26458334,0,0,0.26458334,0,263.17396)"
             id="rect2025"
             inkscape:connector-curvature="0" />
          <path
             inkscape:connector-curvature="0"
             id="path2033"
             d="M 16.933282,294.92488 31.749952,280.10822 16.933282,294.60966 2.1166103,280.10822 Z"
             style="display:inline;fill:#000000;fill-opacity:0.196078;stroke:none;stroke-width:2.13349;stroke-linecap:butt;stroke-linejoin:miter;stroke-miterlimit:4;stroke-dasharray:none;stroke-opacity:1;paint-order:normal" />
        </g>
        <g
           transform="matrix(3.375123,0,0,3.375123,-41.40806,-668.71588)"
           style="display:inline"
           id="g2141">
          <path
             style="display:inline;opacity:0.99;fill:#d5e4fb;fill-opacity:0.992157;stroke-width:0.957365;image-rendering:auto"
             d="m 76.230469,18.115234 c -2.547949,0 -4.607433,2.059464 -4.607422,4.607422 0,0.128445 0.02684,0.24924 0.03711,0.375 0.02378,0.29147 0.07366,0.575976 0.148438,0.84961 0.151491,0.554373 0.40371,1.06587 0.734375,1.515625 0.008,0.01089 0.01729,0.02043 0.02539,0.03125 0.157598,0.210457 0.332875,0.407749 0.523438,0.58789 0.03174,0.02965 0.06704,0.05523 0.09961,0.08398 0.173416,0.154852 0.355139,0.300539 0.550782,0.427734 0.0789,0.05077 0.165926,0.08879 0.248046,0.134766 0.164143,0.09279 0.327831,0.185562 0.503907,0.257812 0.156742,0.06376 0.32344,0.105874 0.488281,0.152344 0.112569,0.03198 0.219927,0.07621 0.335937,0.09961 0.294873,0.05905 0.599644,0.0918 0.91211,0.0918 0.312466,0 0.617236,-0.03275 0.912109,-0.0918 0.11601,-0.0234 0.223369,-0.06764 0.335938,-0.09961 0.164841,-0.04647 0.331539,-0.08857 0.488281,-0.152344 0.176076,-0.07225 0.339763,-0.165022 0.503906,-0.257812 0.08212,-0.04598 0.169147,-0.08401 0.248047,-0.134766 0.195642,-0.127195 0.377366,-0.272882 0.550781,-0.427734 0.03257,-0.02875 0.06787,-0.05432 0.09961,-0.08398 0.190563,-0.180141 0.36584,-0.377433 0.523437,-0.58789 0.0081,-0.01072 0.01739,-0.02046 0.02539,-0.03125 0.164477,-0.223714 0.310939,-0.462631 0.433593,-0.714844 0.123933,-0.25484 0.224642,-0.522157 0.300782,-0.800781 0.07478,-0.273634 0.124657,-0.55814 0.148437,-0.84961 0.01027,-0.12576 0.03711,-0.246555 0.03711,-0.375 0,-2.547958 -2.059471,-4.607422 -4.607423,-4.607422 z"
             id="path4369"
             inkscape:connector-curvature="0"
             transform="matrix(0.27636635,0,0,0.27636635,-0.40171652,263.43476)" />
          <path
             inkscape:connector-curvature="0"
             id="rect2098"
             transform="matrix(0.27636635,0,0,0.27636635,-0.40171652,263.43476)"
             d="m 70.484375,14.474609 c -5.934936,3.401825 -5.292969,7.888672 -5.292969,7.888672 l 0.0293,12.056641 h 25.207031 v -0.002 l -9.769531,-9.769531 c -0.532226,1.956484 -2.300707,3.40039 -4.427734,3.40039 -2.547948,0 -4.607422,-2.059463 -4.607422,-4.607422 -1e-6,-0.131943 0.02232,-0.257743 0.0332,-0.386718 -0.01195,-0.110502 -0.0332,-0.218293 -0.0332,-0.332032 -8e-6,-1.92531 1.177545,-3.568124 2.851562,-4.257812 z"
             style="display:inline;fill:#000604;fill-opacity:0.235294;stroke:none;stroke-width:7.7198;stroke-linecap:butt;stroke-linejoin:miter;stroke-miterlimit:4;stroke-dasharray:none;stroke-opacity:1;paint-order:normal;filter:url(#filter2129)" />
          <path
             inkscape:connector-curvature="0"
             id="path1825"
             d="m 30.765459,279.12744 c 0.549806,-0.56458 0.95498,-1.40021 0.95498,-2.64119 v -6.40787 c 0,0 0.598773,-3.8778 -7.152018,-3.8778 -7.416705,0 -6.953581,3.21634 -6.953581,3.21634 l 0.0083,3.33209 h 7.077604 v 0.31368 z m -10.099643,-8.13956 c -0.704167,0 -1.273307,-0.56914 -1.273307,-1.27331 -3e-6,-0.70417 0.56914,-1.2733 1.273307,-1.2733 0.704168,0 1.273308,0.56913 1.273308,1.2733 0,0.70417 -0.56914,1.27331 -1.273308,1.27331 z"
             style="display:inline;fill:#155acb;fill-opacity:1;stroke:none;stroke-width:0.0661458;stroke-linecap:butt;stroke-linejoin:miter;stroke-miterlimit:4;stroke-dasharray:none;stroke-opacity:0.450292" />
          <path
             style="display:inline;fill:#000000;fill-opacity:0.392157;stroke:none;stroke-width:0.25;stroke-linecap:butt;stroke-linejoin:miter;stroke-miterlimit:4;stroke-dasharray:none;stroke-opacity:0.450292"
             d="m 92.857422,11.439453 c -27.770056,0 -26.312847,11.894523 -26.283203,12.117188 0.169959,-2.665107 2.531557,-11.367188 26.283203,-11.367188 24.385578,0 26.895528,10.129596 27.054688,13.533203 0.1387,-1.858294 0.0742,-14.283203 -27.054688,-14.283203 z m -19.525391,13.65625 c -0.0098,0.125935 -0.03711,0.246501 -0.03711,0.375 0,2.66143 2.151081,4.8125 4.8125,4.8125 2.661422,0 4.8125,-2.15107 4.8125,-4.8125 0,-0.128499 -0.02726,-0.249065 -0.03711,-0.375 -0.194047,2.482389 -2.242466,4.4375 -4.77539,4.4375 -2.532921,0 -4.581344,-1.955111 -4.77539,-4.4375 z"
             id="path2058"
             inkscape:connector-curvature="0"
             transform="matrix(0.26458334,0,0,0.26458334,0,263.17396)" />
        </g>
        <g
           transform="translate(-18.983855,-12.170834)"
           id="g2184" />
        <g
           style="fill:#000000;fill-opacity:0.392157;filter:url(#filter2293)"
           transform="matrix(3.5254315,0,0,3.5254315,-42.763903,-706.80996)"
           id="g2283">
          <g
             style="fill:#000000;fill-opacity:0.392157"
             transform="matrix(0.29902068,0,0,0.29902068,0.92510927,192.13776)"
             id="g2263">
            <path
               style="opacity:1;fill:#000000;fill-opacity:0.392157;fill-rule:nonzero;stroke:none;stroke-width:1.90138"
               id="path2257"
               d="m 41.04659,290.42554 c -0.222818,0.17816 -0.423352,0.34166 -0.609035,0.49763 -0.170819,0.15591 -0.40107,0.28967 -0.705587,0.44564 -0.29709,0.15592 -0.5719,0.26737 -0.861561,0.32679 -0.274809,0.0818 -0.661026,0.11884 -1.166079,0.11884 -0.928406,0 -1.70084,-0.32679 -2.309873,-0.94326 -0.616462,-0.63131 -0.928407,-1.40374 -0.928407,-2.36187 0,-0.79471 0.155969,-1.42603 0.467917,-1.90137 0.319372,-0.48278 0.765007,-0.86899 1.344331,-1.15123 0.59418,-0.28224 1.307196,-0.48276 2.124194,-0.59418 0.831852,-0.104 1.715695,-0.20795 2.673809,-0.25995 v -0.0667 c 0,-0.5719 -0.222818,-0.98041 -0.646171,-1.19579 -0.430779,-0.22283 -1.069523,-0.33423 -1.931084,-0.33423 -0.393644,0 -0.839279,0.0743 -1.359187,0.22282 -0.51248,0.12625 -1.017533,0.31938 -1.522586,0.53477 h -0.26738 v -2.54756 c 0.326798,-0.10401 0.846707,-0.20796 1.574576,-0.34164 0.727871,-0.13367 1.455741,-0.20054 2.205892,-0.20054 1.812249,0 3.126873,0.31194 3.958725,0.90612 0.839279,0.60903 1.255205,1.53743 1.255205,2.77036 v 7.18214 l -3.297699,-9e-5 z m 0,-1.64883 v -2.19106 c -0.557044,0.0593 -1.002679,0.11143 -1.336904,0.15592 -0.334226,0.0371 -0.67588,0.104 -1.002679,0.23025 -0.289663,0.0966 -0.51248,0.24509 -0.661025,0.45306 -0.163404,0.20796 -0.252527,0.47535 -0.252527,0.80214 0,0.49021 0.14112,0.83185 0.401072,1.01754 0.259954,0.18576 0.653598,0.26737 1.180933,0.26737 0.267381,0 0.564471,-0.0445 0.854132,-0.1931 0.311946,-0.11884 0.579326,-0.31194 0.816998,-0.54218"
               inkscape:connector-curvature="0" />
            <path
               style="opacity:1;fill:#000000;fill-opacity:0.392157;fill-rule:nonzero;stroke:none;stroke-width:1.90138"
               id="path2259"
               d="m 51.556148,291.81444 c -0.86899,0 -1.678559,-0.11884 -2.399002,-0.33423 -0.713016,-0.22282 -1.336905,-0.55704 -1.871667,-1.0101 -0.534761,-0.46791 -0.943261,-1.03981 -1.240351,-1.72312 -0.297089,-0.69074 -0.438208,-1.51515 -0.438208,-2.44358 0,-1.01752 0.148555,-1.8568 0.475344,-2.57723 0.319372,-0.7056 0.742725,-1.28493 1.299769,-1.73799 0.527335,-0.43821 1.143797,-0.765 1.86424,-0.97298 0.705589,-0.21538 1.448314,-0.31935 2.220748,-0.31935 0.579324,0 1.173504,0.0743 1.745401,0.21539 0.586754,0.12625 1.16608,0.34164 1.752831,0.63873 v 2.81493 H 54.5419 c -0.118836,-0.12626 -0.289663,-0.26738 -0.475344,-0.40106 -0.200536,-0.16333 -0.393643,-0.29709 -0.623888,-0.41593 -0.237672,-0.1485 -0.519907,-0.23767 -0.802143,-0.34166 -0.311943,-0.0892 -0.646171,-0.14108 -1.017533,-0.14108 -0.839278,0 -1.492876,0.28966 -1.953366,0.88384 -0.453062,0.57933 -0.698161,1.36661 -0.698161,2.35443 0,1.04726 0.252526,1.84196 0.742725,2.36187 0.490197,0.51248 1.136368,0.77244 1.960794,0.77244 0.415925,0 0.787287,-0.0519 1.106659,-0.13367 0.304517,-0.0966 0.571898,-0.21539 0.787287,-0.34166 0.230246,-0.13367 0.423355,-0.25995 0.579327,-0.40849 0.15597,-0.13367 0.29709,-0.25996 0.393643,-0.37136 h 0.423353 v 2.8075 c -0.185688,0.0818 -0.40107,0.17816 -0.653598,0.28965 -0.245099,0.0966 -0.48277,0.18577 -0.750151,0.25252 -0.311944,0.10401 -0.623889,0.1485 -0.898697,0.20054 -0.282236,0.0521 -0.646171,0.0818 -1.106659,0.0818"
               inkscape:connector-curvature="0" />
            <path
               style="opacity:1;fill:#000000;fill-opacity:0.392157;fill-rule:nonzero;stroke:none;stroke-width:1.90138"
               id="path2261"
               d="m 69.322124,291.5322 v -5.27333 c 0,-0.51248 -0.0074,-0.94328 -0.02972,-1.3072 -0.02228,-0.35651 -0.0817,-0.6536 -0.178252,-0.87642 -0.08912,-0.23024 -0.245102,-0.38623 -0.438208,-0.49019 -0.193112,-0.11142 -0.475345,-0.15592 -0.824426,-0.15592 -0.252526,0 -0.497626,0.0445 -0.750152,0.15592 -0.245099,0.11142 -0.512479,0.2748 -0.802143,0.46791 v 7.47923 h -3.290271 v -5.27333 c 0,-0.51248 -0.0074,-0.94328 -0.02972,-1.3072 -0.02972,-0.35651 -0.07427,-0.6536 -0.17082,-0.87642 -0.103987,-0.23024 -0.245099,-0.38623 -0.438206,-0.49019 -0.207965,-0.11142 -0.482774,-0.15592 -0.831852,-0.15592 -0.27481,0 -0.534763,0.0593 -0.794716,0.17816 -0.259954,0.13367 -0.51248,0.28222 -0.750152,0.44563 v 7.47923 h -3.290267 v -10.53925 h 3.290271 v 1.16608 c 0.534762,-0.45306 1.047242,-0.81701 1.522585,-1.07696 0.467918,-0.25252 1.00268,-0.38621 1.604287,-0.38621 0.638742,0 1.210641,0.15591 1.685986,0.46048 0.505053,0.30452 0.868987,0.75758 1.12894,1.37404 0.631317,-0.58674 1.232924,-1.03982 1.782541,-1.35918 0.56447,-0.31937 1.128942,-0.47534 1.700839,-0.47534 0.490196,0 0.928405,0.0892 1.322049,0.23767 0.386218,0.16333 0.720445,0.40106 0.980398,0.70558 0.304517,0.34166 0.519906,0.74272 0.661024,1.21065 0.155972,0.46791 0.222819,1.06952 0.222819,1.82711 l 1.1e-5,6.85537 z"
               inkscape:connector-curvature="0" />
          </g>
          <g
             transform="matrix(0.36445532,0,0,0.36445532,13.905158,171.36046)"
             style="fill:#000000;fill-opacity:0.392157"
             id="g2277">
            <path
               inkscape:connector-curvature="0"
               id="path2265"
               style="fill:#000000;fill-opacity:0.392157;stroke-width:0.104748"
               d="m -3.500435,305.24813 c 0,-1.52535 -0.4349389,-2.30845 -1.3048168,-2.35133 -0.3461141,-0.0163 -0.6840589,0.0388 -1.0128164,0.16642 -0.2623925,0.0939 -0.4390219,0.18684 -0.531932,0.28077 v 3.64083 c 0.5564356,0.34918 1.0505925,0.51151 1.4814474,0.48599 0.9117381,-0.0602 1.3681178,-0.80045 1.3681178,-2.22268 z m 1.0730535,0.0633 c 0,0.77492 -0.1817349,1.41814 -0.5472471,1.92966 -0.4073726,0.57889 -0.9719764,0.87702 -1.6938114,0.89336 -0.5441843,0.0173 -1.104704,-0.15315 -1.6815602,-0.51049 v 3.309 l -0.9331788,-0.33284 v -7.34495 c 0.1531471,-0.18786 0.3501971,-0.34918 0.5891073,-0.48599 0.5554154,-0.32365 1.2302848,-0.49007 2.0246104,-0.49824 l 0.013273,0.0133 c 0.7259192,-0.009 1.2854187,0.28894 1.6784973,0.89336 0.3665326,0.5544 0.55031,1.265 0.55031,2.13386 z" />
            <path
               inkscape:connector-curvature="0"
               id="path2267"
               style="fill:#000000;fill-opacity:0.392157;stroke-width:0.104748"
               d="m 3.2758319,307.48306 c 0,1.03936 -0.10414,1.75915 -0.31242,2.15938 -0.2093023,0.40023 -0.6074853,0.71979 -1.1955725,0.95768 -0.4767992,0.18786 -0.99239579,0.28996 -1.54576856,0.30732 l -0.15416845,-0.58809 c 0.56256123,-0.0766 0.95870381,-0.15315 1.18842451,-0.22972 0.4522956,-0.15315 0.7626751,-0.38797 0.9331789,-0.70244 0.1368118,-0.25626 0.2041969,-0.74531 0.2041969,-1.46919 v -0.24299 c -0.6381145,0.28995 -1.3068594,0.43391 -2.00623238,0.43391 -0.45944253,0 -0.86477353,-0.14396 -1.21394939,-0.43391 -0.39205843,-0.31549 -0.58808713,-0.71571 -0.58808713,-1.20068 v -3.88382 l 0.93317888,-0.31957 v 3.90934 c 0,0.41759 0.13477026,0.7392 0.40430972,0.96484 0.26953946,0.22563 0.61871637,0.33386 1.04650838,0.32569 0.42779202,-0.009 0.88621322,-0.17459 1.37322222,-0.49824 v -4.56073 h 0.9331789 z" />
            <path
               inkscape:connector-curvature="0"
               id="path2269"
               style="fill:#000000;fill-opacity:0.392157;stroke-width:0.104748"
               d="m 6.9187013,308.0834 c -0.1112869,0.009 -0.2133854,0.0133 -0.3073156,0.0133 -0.5278489,0 -0.9393056,-0.12558 -1.2333486,-0.37776 -0.2930228,-0.25219 -0.4400433,-0.60034 -0.4400433,-1.04447 V 302.9989 H 4.2988579 v -0.58706 h 0.6391359 v -1.55905 l 0.9321576,-0.33182 v 1.89087 h 1.0485499 v 0.58706 H 5.8701514 v 3.65002 c 0,0.35019 0.09393,0.59829 0.2817918,0.74327 0.1613153,0.11946 0.4175822,0.18786 0.7667581,0.20522 z" />
            <path
               inkscape:connector-curvature="0"
               id="path2271"
               style="fill:#000000;fill-opacity:0.392157;stroke-width:0.104748"
               d="m 12.568823,308.00682 h -0.933179 v -3.60202 c 0,-0.36654 -0.08576,-0.68202 -0.256265,-0.94544 -0.19705,-0.29812 -0.470675,-0.44719 -0.821892,-0.44719 -0.427793,0 -0.9627893,0.22564 -1.6049859,0.67692 v 4.31773 H 8.0193212 v -8.60995 l 0.9331799,-0.29404 v 3.9216 c 0.5962544,-0.43392 1.2476409,-0.65139 1.9551819,-0.65139 0.494157,0 0.894382,0.16642 1.200677,0.49824 0.307316,0.33182 0.460463,0.74532 0.460463,1.23947 z" />
            <path
               inkscape:connector-curvature="0"
               id="path2273"
               style="fill:#000000;fill-opacity:0.392157;stroke-width:0.104748"
               d="m 17.528761,305.10111 c 0,-0.58605 -0.111286,-1.07 -0.332841,-1.45286 -0.263412,-0.46659 -0.672826,-0.71265 -1.2262,-0.73818 -1.023025,0.0592 -1.533516,0.79229 -1.533516,2.19716 0,0.64424 0.106181,1.1823 0.320587,1.61418 0.273624,0.55031 0.68406,0.82189 1.231307,0.8127 1.027109,-0.008 1.540663,-0.81883 1.540663,-2.433 z m 1.022006,0.006 c 0,0.83415 -0.213386,1.52841 -0.639136,2.08281 -0.468631,0.62076 -1.115935,0.93216 -1.941911,0.93216 -0.818828,0 -1.456943,-0.3114 -1.917407,-0.93216 -0.417582,-0.5544 -0.625863,-1.24866 -0.625863,-2.08281 0,-0.78411 0.225638,-1.44367 0.676912,-1.98071 0.4768,-0.56971 1.103684,-0.85558 1.878609,-0.85558 0.774927,0 1.405894,0.28587 1.891884,0.85558 0.451273,0.53704 0.676912,1.1966 0.676912,1.98071 z" />
            <path
               inkscape:connector-curvature="0"
               id="path2275"
               style="fill:#000000;fill-opacity:0.392157;stroke-width:0.104748"
               d="M 23.900719,308.00682 H 22.96754 v -3.80622 c 0,-0.41758 -0.125581,-0.74328 -0.376742,-0.9781 -0.251163,-0.23381 -0.586045,-0.34714 -1.003627,-0.33795 -0.443106,0.008 -0.864773,0.15315 -1.264998,0.43392 v 4.68835 h -0.933179 v -4.80372 c 0.537038,-0.39104 1.031193,-0.64629 1.482467,-0.76574 0.425751,-0.11129 0.801473,-0.16642 1.125125,-0.16642 0.221554,0 0.429834,0.0214 0.625862,0.0643 0.366534,0.0847 0.66466,0.24197 0.894382,0.47272 0.256266,0.25524 0.383889,0.56154 0.383889,0.9199 z" />
          </g>
          <path
             inkscape:connector-curvature="0"
             id="path2279"
             transform="matrix(0.26458334,0,0,0.26458334,0,263.17396)"
             d="M 91.306641,46.380859 A 35.000001,35.000001 0 0 1 95,62 35.000001,35.000001 0 0 1 66.265625,96.419922 32.500002,32.500002 0 0 0 96.5,64 32.500002,32.500002 0 0 0 91.306641,46.380859 Z"
             style="opacity:1;fill:#000000;fill-opacity:0.392157;stroke:none;stroke-width:0.25;stroke-linecap:butt;stroke-linejoin:miter;stroke-miterlimit:4;stroke-dasharray:none;stroke-opacity:0.450292;paint-order:normal" />
          <path
             inkscape:connector-curvature="0"
             id="path2281"
             transform="matrix(0.26458334,0,0,0.26458334,0,263.17396)"
             d="M 61.734375,31.580078 A 32.500002,32.500002 0 0 0 31.5,64 32.500002,32.500002 0 0 0 36.693359,81.619141 35.000001,35.000001 0 0 1 33,66 35.000001,35.000001 0 0 1 61.734375,31.580078 Z"
             style="opacity:1;fill:#000000;fill-opacity:0.392157;stroke:none;stroke-width:0.25;stroke-linecap:butt;stroke-linejoin:miter;stroke-miterlimit:4;stroke-dasharray:none;stroke-opacity:0.450292;paint-order:normal" />
        </g>
        <g
           id="g2255"
           transform="matrix(3.5254315,0,0,3.5254315,-42.763903,-707.39294)">
          <g
             id="g1520"
             transform="matrix(0.29693261,0,0,0.29693261,1.0368953,192.66931)">
            <path
               inkscape:connector-curvature="0"
               d="m 41.04659,290.42554 c -0.222818,0.17816 -0.423352,0.34166 -0.609035,0.49763 -0.170819,0.15591 -0.40107,0.28967 -0.705587,0.44564 -0.29709,0.15592 -0.5719,0.26737 -0.861561,0.32679 -0.274809,0.0818 -0.661026,0.11884 -1.166079,0.11884 -0.928406,0 -1.70084,-0.32679 -2.309873,-0.94326 -0.616462,-0.63131 -0.928407,-1.40374 -0.928407,-2.36187 0,-0.79471 0.155969,-1.42603 0.467917,-1.90137 0.319372,-0.48278 0.765007,-0.86899 1.344331,-1.15123 0.59418,-0.28224 1.307196,-0.48276 2.124194,-0.59418 0.831852,-0.104 1.715695,-0.20795 2.673809,-0.25995 v -0.0667 c 0,-0.5719 -0.222818,-0.98041 -0.646171,-1.19579 -0.430779,-0.22283 -1.069523,-0.33423 -1.931084,-0.33423 -0.393644,0 -0.839279,0.0743 -1.359187,0.22282 -0.51248,0.12625 -1.017533,0.31938 -1.522586,0.53477 h -0.26738 v -2.54756 c 0.326798,-0.10401 0.846707,-0.20796 1.574576,-0.34164 0.727871,-0.13367 1.455741,-0.20054 2.205892,-0.20054 1.812249,0 3.126873,0.31194 3.958725,0.90612 0.839279,0.60903 1.255205,1.53743 1.255205,2.77036 v 7.18214 l -3.297699,-9e-5 z m 0,-1.64883 v -2.19106 c -0.557044,0.0593 -1.002679,0.11143 -1.336904,0.15592 -0.334226,0.0371 -0.67588,0.104 -1.002679,0.23025 -0.289663,0.0966 -0.51248,0.24509 -0.661025,0.45306 -0.163404,0.20796 -0.252527,0.47535 -0.252527,0.80214 0,0.49021 0.14112,0.83185 0.401072,1.01754 0.259954,0.18576 0.653598,0.26737 1.180933,0.26737 0.267381,0 0.564471,-0.0445 0.854132,-0.1931 0.311946,-0.11884 0.579326,-0.31194 0.816998,-0.54218"
               id="path7024"
               style="opacity:1;fill:#ffffff;fill-opacity:1;fill-rule:nonzero;stroke:none;stroke-width:1.90138" />
            <path
               inkscape:connector-curvature="0"
               d="m 51.556148,291.81444 c -0.86899,0 -1.678559,-0.11884 -2.399002,-0.33423 -0.713016,-0.22282 -1.336905,-0.55704 -1.871667,-1.0101 -0.534761,-0.46791 -0.943261,-1.03981 -1.240351,-1.72312 -0.297089,-0.69074 -0.438208,-1.51515 -0.438208,-2.44358 0,-1.01752 0.148555,-1.8568 0.475344,-2.57723 0.319372,-0.7056 0.742725,-1.28493 1.299769,-1.73799 0.527335,-0.43821 1.143797,-0.765 1.86424,-0.97298 0.705589,-0.21538 1.448314,-0.31935 2.220748,-0.31935 0.579324,0 1.173504,0.0743 1.745401,0.21539 0.586754,0.12625 1.16608,0.34164 1.752831,0.63873 v 2.81493 H 54.5419 c -0.118836,-0.12626 -0.289663,-0.26738 -0.475344,-0.40106 -0.200536,-0.16333 -0.393643,-0.29709 -0.623888,-0.41593 -0.237672,-0.1485 -0.519907,-0.23767 -0.802143,-0.34166 -0.311943,-0.0892 -0.646171,-0.14108 -1.017533,-0.14108 -0.839278,0 -1.492876,0.28966 -1.953366,0.88384 -0.453062,0.57933 -0.698161,1.36661 -0.698161,2.35443 0,1.04726 0.252526,1.84196 0.742725,2.36187 0.490197,0.51248 1.136368,0.77244 1.960794,0.77244 0.415925,0 0.787287,-0.0519 1.106659,-0.13367 0.304517,-0.0966 0.571898,-0.21539 0.787287,-0.34166 0.230246,-0.13367 0.423355,-0.25995 0.579327,-0.40849 0.15597,-0.13367 0.29709,-0.25996 0.393643,-0.37136 h 0.423353 v 2.8075 c -0.185688,0.0818 -0.40107,0.17816 -0.653598,0.28965 -0.245099,0.0966 -0.48277,0.18577 -0.750151,0.25252 -0.311944,0.10401 -0.623889,0.1485 -0.898697,0.20054 -0.282236,0.0521 -0.646171,0.0818 -1.106659,0.0818"
               id="path7026"
               style="opacity:1;fill:#ffffff;fill-opacity:1;fill-rule:nonzero;stroke:none;stroke-width:1.90138" />
            <path
               inkscape:connector-curvature="0"
               d="m 69.322124,291.5322 v -5.27333 c 0,-0.51248 -0.0074,-0.94328 -0.02972,-1.3072 -0.02228,-0.35651 -0.0817,-0.6536 -0.178252,-0.87642 -0.08912,-0.23024 -0.245102,-0.38623 -0.438208,-0.49019 -0.193112,-0.11142 -0.475345,-0.15592 -0.824426,-0.15592 -0.252526,0 -0.497626,0.0445 -0.750152,0.15592 -0.245099,0.11142 -0.512479,0.2748 -0.802143,0.46791 v 7.47923 h -3.290271 v -5.27333 c 0,-0.51248 -0.0074,-0.94328 -0.02972,-1.3072 -0.02972,-0.35651 -0.07427,-0.6536 -0.17082,-0.87642 -0.103987,-0.23024 -0.245099,-0.38623 -0.438206,-0.49019 -0.207965,-0.11142 -0.482774,-0.15592 -0.831852,-0.15592 -0.27481,0 -0.534763,0.0593 -0.794716,0.17816 -0.259954,0.13367 -0.51248,0.28222 -0.750152,0.44563 v 7.47923 h -3.290267 v -10.53925 h 3.290271 v 1.16608 c 0.534762,-0.45306 1.047242,-0.81701 1.522585,-1.07696 0.467918,-0.25252 1.00268,-0.38621 1.604287,-0.38621 0.638742,0 1.210641,0.15591 1.685986,0.46048 0.505053,0.30452 0.868987,0.75758 1.12894,1.37404 0.631317,-0.58674 1.232924,-1.03982 1.782541,-1.35918 0.56447,-0.31937 1.128942,-0.47534 1.700839,-0.47534 0.490196,0 0.928405,0.0892 1.322049,0.23767 0.386218,0.16333 0.720445,0.40106 0.980398,0.70558 0.304517,0.34166 0.519906,0.74272 0.661024,1.21065 0.155972,0.46791 0.222819,1.06952 0.222819,1.82711 l 1.1e-5,6.85537 z"
               id="path7028"
               style="opacity:1;fill:#ffffff;fill-opacity:1;fill-rule:nonzero;stroke:none;stroke-width:1.90138" />
          </g>
          <g
             id="g2023"
             style="fill:#fbfbfb;fill-opacity:1"
             transform="matrix(0.36445532,0,0,0.36445532,13.905158,171.32739)">
            <path
               d="m -3.500435,305.24813 c 0,-1.52535 -0.4349389,-2.30845 -1.3048168,-2.35133 -0.3461141,-0.0163 -0.6840589,0.0388 -1.0128164,0.16642 -0.2623925,0.0939 -0.4390219,0.18684 -0.531932,0.28077 v 3.64083 c 0.5564356,0.34918 1.0505925,0.51151 1.4814474,0.48599 0.9117381,-0.0602 1.3681178,-0.80045 1.3681178,-2.22268 z m 1.0730535,0.0633 c 0,0.77492 -0.1817349,1.41814 -0.5472471,1.92966 -0.4073726,0.57889 -0.9719764,0.87702 -1.6938114,0.89336 -0.5441843,0.0173 -1.104704,-0.15315 -1.6815602,-0.51049 v 3.309 l -0.9331788,-0.33284 v -7.34495 c 0.1531471,-0.18786 0.3501971,-0.34918 0.5891073,-0.48599 0.5554154,-0.32365 1.2302848,-0.49007 2.0246104,-0.49824 l 0.013273,0.0133 c 0.7259192,-0.009 1.2854187,0.28894 1.6784973,0.89336 0.3665326,0.5544 0.55031,1.265 0.55031,2.13386 z"
               style="fill:#fbfbfb;fill-opacity:1;stroke-width:0.104748"
               id="path46"
               inkscape:connector-curvature="0" />
            <path
               d="m 3.2758319,307.48306 c 0,1.03936 -0.10414,1.75915 -0.31242,2.15938 -0.2093023,0.40023 -0.6074853,0.71979 -1.1955725,0.95768 -0.4767992,0.18786 -0.99239579,0.28996 -1.54576856,0.30732 l -0.15416845,-0.58809 c 0.56256123,-0.0766 0.95870381,-0.15315 1.18842451,-0.22972 0.4522956,-0.15315 0.7626751,-0.38797 0.9331789,-0.70244 0.1368118,-0.25626 0.2041969,-0.74531 0.2041969,-1.46919 v -0.24299 c -0.6381145,0.28995 -1.3068594,0.43391 -2.00623238,0.43391 -0.45944253,0 -0.86477353,-0.14396 -1.21394939,-0.43391 -0.39205843,-0.31549 -0.58808713,-0.71571 -0.58808713,-1.20068 v -3.88382 l 0.93317888,-0.31957 v 3.90934 c 0,0.41759 0.13477026,0.7392 0.40430972,0.96484 0.26953946,0.22563 0.61871637,0.33386 1.04650838,0.32569 0.42779202,-0.009 0.88621322,-0.17459 1.37322222,-0.49824 v -4.56073 h 0.9331789 z"
               style="fill:#fbfbfb;fill-opacity:1;stroke-width:0.104748"
               id="path48"
               inkscape:connector-curvature="0" />
            <path
               d="m 6.9187013,308.0834 c -0.1112869,0.009 -0.2133854,0.0133 -0.3073156,0.0133 -0.5278489,0 -0.9393056,-0.12558 -1.2333486,-0.37776 -0.2930228,-0.25219 -0.4400433,-0.60034 -0.4400433,-1.04447 V 302.9989 H 4.2988579 v -0.58706 h 0.6391359 v -1.55905 l 0.9321576,-0.33182 v 1.89087 h 1.0485499 v 0.58706 H 5.8701514 v 3.65002 c 0,0.35019 0.09393,0.59829 0.2817918,0.74327 0.1613153,0.11946 0.4175822,0.18786 0.7667581,0.20522 z"
               style="fill:#fbfbfb;fill-opacity:1;stroke-width:0.104748"
               id="path50"
               inkscape:connector-curvature="0" />
            <path
               d="m 12.568823,308.00682 h -0.933179 v -3.60202 c 0,-0.36654 -0.08576,-0.68202 -0.256265,-0.94544 -0.19705,-0.29812 -0.470675,-0.44719 -0.821892,-0.44719 -0.427793,0 -0.9627893,0.22564 -1.6049859,0.67692 v 4.31773 H 8.0193212 v -8.60995 l 0.9331799,-0.29404 v 3.9216 c 0.5962544,-0.43392 1.2476409,-0.65139 1.9551819,-0.65139 0.494157,0 0.894382,0.16642 1.200677,0.49824 0.307316,0.33182 0.460463,0.74532 0.460463,1.23947 z"
               style="fill:#fbfbfb;fill-opacity:1;stroke-width:0.104748"
               id="path52"
               inkscape:connector-curvature="0" />
            <path
               d="m 17.528761,305.10111 c 0,-0.58605 -0.111286,-1.07 -0.332841,-1.45286 -0.263412,-0.46659 -0.672826,-0.71265 -1.2262,-0.73818 -1.023025,0.0592 -1.533516,0.79229 -1.533516,2.19716 0,0.64424 0.106181,1.1823 0.320587,1.61418 0.273624,0.55031 0.68406,0.82189 1.231307,0.8127 1.027109,-0.008 1.540663,-0.81883 1.540663,-2.433 z m 1.022006,0.006 c 0,0.83415 -0.213386,1.52841 -0.639136,2.08281 -0.468631,0.62076 -1.115935,0.93216 -1.941911,0.93216 -0.818828,0 -1.456943,-0.3114 -1.917407,-0.93216 -0.417582,-0.5544 -0.625863,-1.24866 -0.625863,-2.08281 0,-0.78411 0.225638,-1.44367 0.676912,-1.98071 0.4768,-0.56971 1.103684,-0.85558 1.878609,-0.85558 0.774927,0 1.405894,0.28587 1.891884,0.85558 0.451273,0.53704 0.676912,1.1966 0.676912,1.98071 z"
               style="fill:#fbfbfb;fill-opacity:1;stroke-width:0.104748"
               id="path54"
               inkscape:connector-curvature="0" />
            <path
               d="M 23.900719,308.00682 H 22.96754 v -3.80622 c 0,-0.41758 -0.125581,-0.74328 -0.376742,-0.9781 -0.251163,-0.23381 -0.586045,-0.34714 -1.003627,-0.33795 -0.443106,0.008 -0.864773,0.15315 -1.264998,0.43392 v 4.68835 h -0.933179 v -4.80372 c 0.537038,-0.39104 1.031193,-0.64629 1.482467,-0.76574 0.425751,-0.11129 0.801473,-0.16642 1.125125,-0.16642 0.221554,0 0.429834,0.0214 0.625862,0.0643 0.366534,0.0847 0.66466,0.24197 0.894382,0.47272 0.256266,0.25524 0.383889,0.56154 0.383889,0.9199 z"
               style="fill:#fbfbfb;fill-opacity:1;stroke-width:0.104748"
               id="path56"
               inkscape:connector-curvature="0" />
          </g>
          <path
             style="opacity:1;fill:#ffffff;fill-opacity:1;stroke:none;stroke-width:0.25;stroke-linecap:butt;stroke-linejoin:miter;stroke-miterlimit:4;stroke-dasharray:none;stroke-opacity:0.450292;paint-order:normal"
             d="M 91.306641,46.380859 A 35.000001,35.000001 0 0 1 95,62 35.000001,35.000001 0 0 1 66.265625,96.419922 32.500002,32.500002 0 0 0 96.5,64 32.500002,32.500002 0 0 0 91.306641,46.380859 Z"
             transform="matrix(0.26458334,0,0,0.26458334,0,263.17396)"
             id="path2232"
             inkscape:connector-curvature="0" />
          <path
             style="opacity:1;fill:#ffffff;fill-opacity:1;stroke:none;stroke-width:0.25;stroke-linecap:butt;stroke-linejoin:miter;stroke-miterlimit:4;stroke-dasharray:none;stroke-opacity:0.450292;paint-order:normal"
             d="M 61.734375,31.580078 A 32.500002,32.500002 0 0 0 31.5,64 32.500002,32.500002 0 0 0 36.693359,81.619141 35.000001,35.000001 0 0 1 33,66 35.000001,35.000001 0 0 1 61.734375,31.580078 Z"
             transform="matrix(0.26458334,0,0,0.26458334,0,263.17396)"
             id="circle2236"
             inkscape:connector-curvature="0" />
        </g>
        <g
           id="g5185"
           style="display:inline"
           transform="matrix(-3.375123,0,0,-3.375123,75.256269,1228.9113)">
          <path
             inkscape:connector-curvature="0"
             id="path5177"
             transform="matrix(0.27636635,0,0,0.27636635,-0.40171652,263.43476)"
             d="m 76.230469,18.115234 c -2.547949,0 -4.607433,2.059464 -4.607422,4.607422 0,0.128445 0.02684,0.24924 0.03711,0.375 0.02378,0.29147 0.07366,0.575976 0.148438,0.84961 0.151491,0.554373 0.40371,1.06587 0.734375,1.515625 0.008,0.01089 0.01729,0.02043 0.02539,0.03125 0.157598,0.210457 0.332875,0.407749 0.523438,0.58789 0.03174,0.02965 0.06704,0.05523 0.09961,0.08398 0.173416,0.154852 0.355139,0.300539 0.550782,0.427734 0.0789,0.05077 0.165926,0.08879 0.248046,0.134766 0.164143,0.09279 0.327831,0.185562 0.503907,0.257812 0.156742,0.06376 0.32344,0.105874 0.488281,0.152344 0.112569,0.03198 0.219927,0.07621 0.335937,0.09961 0.294873,0.05905 0.599644,0.0918 0.91211,0.0918 0.312466,0 0.617236,-0.03275 0.912109,-0.0918 0.11601,-0.0234 0.223369,-0.06764 0.335938,-0.09961 0.164841,-0.04647 0.331539,-0.08857 0.488281,-0.152344 0.176076,-0.07225 0.339763,-0.165022 0.503906,-0.257812 0.08212,-0.04598 0.169147,-0.08401 0.248047,-0.134766 0.195642,-0.127195 0.377366,-0.272882 0.550781,-0.427734 0.03257,-0.02875 0.06787,-0.05432 0.09961,-0.08398 0.190563,-0.180141 0.36584,-0.377433 0.523437,-0.58789 0.0081,-0.01072 0.01739,-0.02046 0.02539,-0.03125 0.164477,-0.223714 0.310939,-0.462631 0.433593,-0.714844 0.123933,-0.25484 0.224642,-0.522157 0.300782,-0.800781 0.07478,-0.273634 0.124657,-0.55814 0.148437,-0.84961 0.01027,-0.12576 0.03711,-0.246555 0.03711,-0.375 0,-2.547958 -2.059471,-4.607422 -4.607423,-4.607422 z"
             style="display:inline;opacity:0.99;fill:#fff4d1;fill-opacity:0.984314;stroke-width:0.957365;image-rendering:auto" />
          <path
             style="display:inline;fill:#000604;fill-opacity:0.235294;stroke:none;stroke-width:7.7198;stroke-linecap:butt;stroke-linejoin:miter;stroke-miterlimit:4;stroke-dasharray:none;stroke-opacity:1;paint-order:normal;filter:url(#filter2129)"
             d="m 70.484375,14.474609 c -5.934936,3.401825 -5.292969,7.888672 -5.292969,7.888672 l 0.0293,12.056641 h 25.207031 v -0.002 l -9.769531,-9.769531 c -0.532226,1.956484 -2.300707,3.40039 -4.427734,3.40039 -2.547948,0 -4.607422,-2.059463 -4.607422,-4.607422 -1e-6,-0.131943 0.02232,-0.257743 0.0332,-0.386718 -0.01195,-0.110502 -0.0332,-0.218293 -0.0332,-0.332032 -8e-6,-1.92531 1.177545,-3.568124 2.851562,-4.257812 z"
             transform="matrix(0.27636635,0,0,0.27636635,-0.40171652,263.43476)"
             id="path5179"
             inkscape:connector-curvature="0" />
          <path
             style="display:inline;fill:#dca500;fill-opacity:0.992157;stroke:none;stroke-width:0.0661458;stroke-linecap:butt;stroke-linejoin:miter;stroke-miterlimit:4;stroke-dasharray:none;stroke-opacity:0.450292"
             d="m 30.765459,279.12744 c 0.549806,-0.56458 0.95498,-1.40021 0.95498,-2.64119 v -6.40787 c 0,0 0.598773,-3.8778 -7.152018,-3.8778 -7.416705,0 -6.953581,3.21634 -6.953581,3.21634 l 0.0083,3.33209 h 7.077604 v 0.31368 z m -10.099643,-8.13956 c -0.704167,0 -1.273307,-0.56914 -1.273307,-1.27331 -3e-6,-0.70417 0.56914,-1.2733 1.273307,-1.2733 0.704168,0 1.273308,0.56913 1.273308,1.2733 0,0.70417 -0.56914,1.27331 -1.273308,1.27331 z"
             id="path5181"
             inkscape:connector-curvature="0" />
          <path
             transform="matrix(0.26458334,0,0,0.26458334,0,263.17396)"
             inkscape:connector-curvature="0"
             id="path5183"
             d="m 92.857422,11.439453 c -27.770056,0 -26.312847,11.894523 -26.283203,12.117188 0.169959,-2.665107 2.531557,-11.367188 26.283203,-11.367188 24.385578,0 26.895528,10.129596 27.054688,13.533203 0.1387,-1.858294 0.0742,-14.283203 -27.054688,-14.283203 z m -19.525391,13.65625 c -0.0098,0.125935 -0.03711,0.246501 -0.03711,0.375 0,2.66143 2.151081,4.8125 4.8125,4.8125 2.661422,0 4.8125,-2.15107 4.8125,-4.8125 0,-0.128499 -0.02726,-0.249065 -0.03711,-0.375 -0.194047,2.482389 -2.242466,4.4375 -4.77539,4.4375 -2.532921,0 -4.581344,-1.955111 -4.77539,-4.4375 z"
             style="display:inline;fill:#000000;fill-opacity:0.392157;stroke:none;stroke-width:0.25;stroke-linecap:butt;stroke-linejoin:miter;stroke-miterlimit:4;stroke-dasharray:none;stroke-opacity:0.450292" />
        </g>
      </g>
      <g
         id="g1757"
         transform="matrix(0.1637128,0,0,0.1637128,28.074915,14.551853)">
        <polygon
           transform="matrix(0.01683667,0,0,0.01683667,126.40351,172.04934)"
           style="clip-rule:evenodd;fill:#155acb;fill-opacity:0.992157;fill-rule:evenodd;image-rendering:optimizeQuality;shape-rendering:geometricPrecision;text-rendering:geometricPrecision"
           class="fil0"
           points="6350,2117 8467,4233 6350,6350 4233,8467 2117,6350 0,4233 2117,2117 4233,0 "
           id="polygon59331" />
        <path
           style="clip-rule:evenodd;fill:#fefefe;fill-rule:evenodd;stroke-width:0.0168367;image-rendering:optimizeQuality;shape-rendering:geometricPrecision;text-rendering:geometricPrecision"
           inkscape:connector-curvature="0"
           class="fil1"
           d="m 197.67313,204.10645 c -21.65196,0 -39.2126,17.56065 -39.2126,39.2126 0,21.6688 17.56064,39.21261 39.2126,39.21261 21.66884,0 39.21265,-17.54381 39.21265,-39.21261 0,-21.65195 -17.54381,-39.2126 -39.21265,-39.2126 z m 0,-4.47856 c -24.12695,0 -43.69116,19.56421 -43.69116,43.69116 0,24.14379 19.56421,43.708 43.69116,43.708 24.14383,0 43.70805,-19.56421 43.70805,-43.708 0,-24.12695 -19.56422,-43.69116 -43.70805,-43.69116 z"
           id="path59333" />
        <circle
           style="clip-rule:evenodd;fill:#155acb;fill-opacity:0.992157;fill-rule:evenodd;stroke-width:0.0168367;image-rendering:optimizeQuality;shape-rendering:geometricPrecision;text-rendering:geometricPrecision"
           class="fil2"
           cx="197.67314"
           cy="243.31856"
           r="39.212605"
           id="circle59335" />
        <path
           style="clip-rule:evenodd;fill:#fefefe;fill-rule:evenodd;stroke-width:0.0168367;image-rendering:optimizeQuality;shape-rendering:geometricPrecision;text-rendering:geometricPrecision"
           inkscape:connector-curvature="0"
           class="fil1"
           d="m 180.16299,241.56804 c 0,-4.66376 -2.03723,-8.51936 -8.56986,-8.51936 -3.56938,0 -6.26324,1.0102 -7.62701,1.76785 l 1.12805,3.93979 c 1.27959,-0.80816 3.40101,-1.48163 5.40458,-1.48163 3.01376,0 3.56937,1.48163 3.56937,2.55917 v 0.23572 c -6.93671,0 -11.49945,2.40764 -11.49945,7.50915 0,3.13162 2.35714,6.01069 6.33059,6.01069 2.32346,0 4.32703,-0.84183 5.62345,-2.40764 h 0.11786 l 0.35357,1.96989 h 5.50559 c -0.25255,-1.07755 -0.33674,-2.89591 -0.33674,-4.73111 z m -5.89283,4.44488 c 0,0.35357 -0.0337,0.72398 -0.11786,1.04387 -0.40408,1.24592 -1.68366,2.23928 -3.16529,2.23928 -1.36377,0 -2.40765,-0.75765 -2.40765,-2.32346 0,-2.32346 2.49183,-3.08111 5.6908,-3.08111 z m 24.7499,2.12142 c -0.92601,0.40408 -2.03723,0.63979 -3.48519,0.63979 -2.96325,0 -5.37089,-1.91938 -5.37089,-5.48875 -0.0505,-3.2158 2.03723,-5.48875 5.25304,-5.48875 1.59948,0 2.67703,0.26938 3.401,0.58928 l 0.9597,-4.52907 c -1.27959,-0.47142 -3.04744,-0.75765 -4.64693,-0.75765 -7.30711,0 -11.23006,4.69744 -11.23006,10.4219 0,6.14539 4.05764,10.03466 10.38823,10.03466 2.32346,0 4.37753,-0.40408 5.45508,-0.92602 z m 4.09134,5.01733 h 5.94336 v -11.4321 c 0,-0.52194 0.0337,-1.07755 0.23572,-1.56581 0.35357,-0.95969 1.27958,-2.17193 2.84539,-2.17193 1.96989,0 2.8454,1.7005 2.8454,4.14182 v 11.02802 h 5.94334 V 241.6859 c 0,-0.52194 0.0842,-1.12806 0.20204,-1.56581 0.43776,-1.16173 1.39745,-2.13826 2.8454,-2.13826 1.96989,0 2.87908,1.64999 2.87908,4.49539 v 10.67445 h 5.94335 v -11.54996 c 0,-5.89283 -2.8454,-8.55303 -6.61682,-8.55303 -1.44796,0 -2.64336,0.37041 -3.73775,0.97653 -0.95969,0.55561 -1.80152,1.36377 -2.55917,2.40765 h -0.0842 c -0.84184,-2.05408 -2.81173,-3.38418 -5.3709,-3.38418 -3.33366,0 -5.10151,1.85204 -5.94334,3.13163 h -0.11786 l -0.23571,-2.64336 h -5.16888 c 0.0674,1.76785 0.15153,3.80509 0.15153,6.26324 z"
           id="path59337" />
        <path
           style="clip-rule:evenodd;fill:#fefefe;fill-rule:evenodd;stroke-width:0.0168367;image-rendering:optimizeQuality;shape-rendering:geometricPrecision;text-rendering:geometricPrecision"
           inkscape:connector-curvature="0"
           class="fil1"
           d="m 178.3278,258.23634 v 7.35763 c 0,4.19233 1.93621,6.0612 5.25304,6.0612 3.45152,0 5.50559,-1.95306 5.50559,-6.01069 v -7.40814 h -2.98009 v 7.5765 c 0,2.35714 -0.85867,3.45152 -2.42448,3.45152 -1.49846,0 -2.39081,-1.16173 -2.39081,-3.45152 v -7.5765 z m 13.33464,13.19995 h 2.96325 v -4.74794 c 0.26939,0.0674 0.62296,0.0842 1.0102,0.0842 1.76785,0 3.28315,-0.45459 4.29336,-1.3806 0.80816,-0.72398 1.21225,-1.85204 1.21225,-3.13162 0,-1.29643 -0.53878,-2.39081 -1.41429,-3.06428 -0.87551,-0.70714 -2.18877,-1.06071 -4.02397,-1.06071 -1.81836,0 -3.11478,0.11786 -4.0408,0.28623 z m 2.96325,-10.927 c 0.21888,-0.0505 0.62296,-0.10102 1.21225,-0.10102 1.5153,0 2.35713,0.72398 2.35713,1.93622 0,1.3301 -0.99337,2.13826 -2.57601,2.13826 -0.43775,0 -0.74082,-0.0168 -0.99337,-0.0842 z m 19.51375,10.927 h 2.8959 l -0.70714,-13.19995 h -3.9061 l -1.39745,4.39437 c -0.45459,1.46479 -0.89234,3.19897 -1.24591,4.73111 h -0.0842 c -0.28623,-1.54898 -0.69031,-3.19897 -1.11122,-4.71427 l -1.29643,-4.41121 h -3.97347 l -0.84184,13.19995 h 2.76123 l 0.25255,-5.01733 c 0.0842,-1.63315 0.15153,-3.67039 0.21888,-5.45508 h 0.0337 c 0.33673,1.71734 0.77449,3.60305 1.19541,5.16886 l 1.41428,5.08468 h 2.32346 l 1.59949,-5.15203 c 0.52193,-1.54897 1.06071,-3.41784 1.49846,-5.10151 h 0.0337 c 0,1.91938 0.0674,3.83876 0.11786,5.42141 z"
           id="path59339" />
      </g>
      <g
         style="font-style:normal;font-variant:normal;font-weight:600;font-stretch:normal;font-size:17.7142px;line-height:1.25;font-family:'Zilla Slab';-inkscape-font-specification:'Zilla Slab, Semi-Bold';font-variant-ligatures:normal;font-variant-caps:normal;font-variant-numeric:normal;font-feature-settings:normal;text-align:start;letter-spacing:0px;word-spacing:0px;writing-mode:lr-tb;text-anchor:start;fill:#000000;fill-opacity:1;stroke:none;stroke-width:0.442856"
         id="text2624"
         aria-label="Intro a Python">
        <path
           id="path186"
           style="stroke-width:0.442856"
           d="m 69.920163,34.553013 h -4.605691 v -1.682849 h 1.328565 v -8.148532 h -1.328565 v -1.682849 h 4.605691 v 1.682849 h -1.31085 v 8.148532 h 1.31085 z" />
        <path
           id="path188"
           style="stroke-width:0.442856"
           d="m 80.832103,34.553013 h -4.251408 v -1.452564 h 1.169137 v -3.1177 q 0,-1.133708 -0.407426,-1.594277 -0.407427,-0.478284 -1.133709,-0.478284 -0.903424,0 -1.43485,0.584569 -0.513712,0.584568 -0.531426,1.43485 v 3.170842 h 1.186851 v 1.452564 H 71.16015 v -1.452564 h 1.186852 v -5.030833 h -1.239994 v -1.470279 h 3.135413 v 1.293137 q 0.832567,-1.452564 2.639416,-1.452564 1.133708,0 1.948562,0.690853 0.814853,0.690854 0.814853,2.161133 v 3.808553 h 1.186851 z" />
        <path
           id="path190"
           style="stroke-width:0.442856"
           d="m 87.953186,32.214739 q -0.33657,2.515416 -2.798844,2.515416 -1.275422,0 -2.037133,-0.67314 -0.743996,-0.673139 -0.743996,-1.877705 v -4.180551 h -1.169137 v -1.399422 h 1.169137 v -2.462273 h 1.895419 v 2.462273 h 2.958271 v 1.399422 h -2.958271 v 3.87941 q 0,1.257708 1.09828,1.257708 0.301142,0 0.67314,-0.21257 0.371998,-0.230285 0.513712,-1.151423 z" />
        <path
           id="path192"
           style="stroke-width:0.442856"
           d="m 93.267419,26.475338 q 0.797139,0 1.487993,0.442855 l 0.33657,2.479988 -1.470279,0.177142 -0.301141,-1.363993 q -0.354284,-0.177142 -0.602283,-0.177142 -0.495998,0 -0.867996,0.407426 -0.354284,0.407427 -0.354284,1.133709 v 3.525126 h 1.576564 v 1.452564 h -4.658834 v -1.452564 h 1.186851 v -5.030833 h -1.239994 v -1.470279 h 2.9937 v 1.487993 q 0.21257,-0.673139 0.673139,-1.133709 0.478284,-0.478283 1.239994,-0.478283 z" />
        <path
           id="path194"
           style="stroke-width:0.442856"
           d="m 104.30334,30.585032 q 0,1.859991 -1.18685,3.011414 -1.16914,1.133709 -3.04684,1.133709 -1.824564,0 -2.940559,-1.098281 -1.09828,-1.09828 -1.09828,-2.975985 0,-1.735991 1.045138,-2.975985 1.045138,-1.257709 3.099981,-1.257709 2.07256,0 3.09999,1.239994 1.02742,1.239994 1.02742,2.922843 z m -1.96627,-0.05314 q 0,-1.275423 -0.62,-1.948562 -0.60228,-0.67314 -1.57656,-0.67314 -1.009714,0 -1.576568,0.726282 -0.566855,0.708568 -0.566855,1.913134 0,1.133709 0.531426,1.913133 0.54914,0.779425 1.611997,0.779425 1.02742,0 1.61199,-0.743996 0.58457,-0.761711 0.58457,-1.966276 z" />
        <path
           id="path196"
           style="stroke-width:0.442856"
           d="m 109.63529,27.183906 q 0.88571,-0.425141 1.57657,-0.584569 0.69085,-0.159427 1.59427,-0.159427 1.32857,0 2.17885,0.673139 0.868,0.67314 0.868,2.019419 v 3.578268 q 0,0.708568 0.58456,0.708568 0.15943,0 0.40743,-0.07086 l 0.0177,1.045138 q -0.58457,0.33657 -1.27543,0.33657 -1.5057,0 -1.6297,-1.576564 v -0.03543 q -0.35429,0.619997 -1.00971,1.115994 -0.63771,0.495998 -1.59428,0.495998 -0.83257,0 -1.64742,-0.495998 -0.79714,-0.513712 -0.79714,-1.77142 0,-1.470278 1.16914,-1.930847 1.16913,-0.478284 2.53313,-0.478284 0.33657,0 0.69085,0.01771 0.35429,0.01771 0.65543,0.05314 v -0.442855 q 0,-0.708568 -0.248,-1.275422 -0.248,-0.566855 -1.24,-0.566855 -0.37199,0 -0.70856,0.05314 -0.31886,0.05314 -0.62,0.21257 l -0.31886,1.22228 -1.52342,-0.159428 z m 4.32227,4.215979 v -0.283427 q -0.30114,-0.03543 -0.62,-0.07086 -0.31886,-0.03543 -0.65543,-0.03543 -0.70856,0 -1.27542,0.247999 -0.54914,0.247999 -0.54914,0.991995 0,1.080566 1.15142,1.080566 0.67314,0 1.27543,-0.478283 0.60228,-0.495998 0.67314,-1.452565 z" />
        <path
           id="path198"
           style="stroke-width:0.442856"
           d="m 130.80375,26.705623 q 0,1.895419 -1.22228,2.8697 -1.20456,0.956567 -2.90513,0.956567 h -1.94856 v 2.338274 h 1.84228 v 1.682849 h -5.13712 v -1.682849 h 1.32857 v -8.148532 h -1.32857 v -1.682849 h 5.13712 q 2.14342,0 3.18855,1.027424 1.04514,1.027424 1.04514,2.639416 z m -2.10799,0.03543 q 0,-0.956567 -0.54914,-1.487993 -0.53142,-0.531426 -1.80685,-0.531426 h -1.61199 v 4.145123 h 1.61199 q 1.25771,0 1.80685,-0.566854 0.54914,-0.584569 0.54914,-1.55885 z" />
        <path
           id="path200"
           style="stroke-width:0.442856"
           d="m 140.28082,28.051902 h -0.83256 l -2.65713,6.501111 -0.88571,2.285132 h 1.16913 v 1.487992 h -4.2514 v -1.487992 h 1.34628 l 0.77942,-2.214275 -2.81656,-6.571968 h -0.86799 v -1.452565 h 3.91484 v 1.452565 h -1.00971 l 1.84227,4.30455 h 0.10629 l 1.48799,-4.30455 h -0.90342 v -1.452565 h 3.57826 z" />
        <path
           id="path202"
           style="stroke-width:0.442856"
           d="m 147.34877,32.214739 q -0.33657,2.515416 -2.79885,2.515416 -1.27542,0 -2.03713,-0.67314 -0.744,-0.673139 -0.744,-1.877705 v -4.180551 h -1.16913 v -1.399422 h 1.16913 v -2.462273 h 1.89542 v 2.462273 h 2.95828 v 1.399422 h -2.95828 v 3.87941 q 0,1.257708 1.09828,1.257708 0.30115,0 0.67314,-0.21257 0.372,-0.230285 0.51372,-1.151423 z" />
        <path
           id="path204"
           style="stroke-width:0.442856"
           d="m 157.25098,34.553013 h -4.26912 v -1.452564 h 1.18685 v -3.1177 q 0,-1.133708 -0.42514,-1.594277 -0.42514,-0.478284 -1.15142,-0.478284 -0.868,0 -1.38171,0.566855 -0.51371,0.566854 -0.54914,1.381707 v 3.241699 h 1.16914 v 1.452564 h -4.25141 v -1.452564 h 1.18685 v -9.282241 h -1.18685 v -1.452564 h 3.08227 v 5.544544 q 0.81485,-1.470278 2.63941,-1.470278 1.15143,0 1.94857,0.690853 0.81485,0.690854 0.81485,2.161133 v 3.808553 h 1.18685 z" />
        <path
           id="path206"
           style="stroke-width:0.442856"
           d="m 166.17894,30.585032 q 0,1.859991 -1.18685,3.011414 -1.16914,1.133709 -3.04684,1.133709 -1.82457,0 -2.94056,-1.098281 -1.09828,-1.09828 -1.09828,-2.975985 0,-1.735991 1.04514,-2.975985 1.04513,-1.257709 3.09998,-1.257709 2.07256,0 3.09999,1.239994 1.02742,1.239994 1.02742,2.922843 z m -1.96628,-0.05314 q 0,-1.275423 -0.61999,-1.948562 -0.60229,-0.67314 -1.57657,-0.67314 -1.00971,0 -1.57656,0.726282 -0.56686,0.708568 -0.56686,1.913134 0,1.133709 0.53143,1.913133 0.54914,0.779425 1.61199,0.779425 1.02743,0 1.61199,-0.743996 0.58457,-0.761711 0.58457,-1.966276 z" />
        <path
           id="path208"
           style="stroke-width:0.442856"
           d="m 176.82515,34.553013 h -4.25141 v -1.452564 h 1.16914 v -3.1177 q 0,-1.133708 -0.40742,-1.594277 -0.40743,-0.478284 -1.13371,-0.478284 -0.90343,0 -1.43485,0.584569 -0.51372,0.584568 -0.53143,1.43485 v 3.170842 h 1.18685 v 1.452564 h -4.26912 v -1.452564 h 1.18685 v -5.030833 h -1.23999 v -1.470279 h 3.13541 v 1.293137 q 0.83257,-1.452564 2.63942,-1.452564 1.13371,0 1.94856,0.690853 0.81485,0.690854 0.81485,2.161133 v 3.808553 h 1.18685 z" />
      </g>
      <polygon
         transform="matrix(8.1449395e-4,0,0,8.1449395e-4,135.92581,54.268362)"
         style="clip-rule:evenodd;fill:#017478;fill-opacity:0.992157;fill-rule:evenodd;image-rendering:optimizeQuality;shape-rendering:geometricPrecision;text-rendering:geometricPrecision"
         class="fil0"
         points="6350,2117 8467,4233 6350,6350 4233,8467 2117,6350 0,4233 2117,2117 4233,0 "
         id="polygon59331-0" />
      <polygon
         id="polygon2641"
         points="0,4233 2117,2117 4233,0 6350,2117 8467,4233 6350,6350 4233,8467 2117,6350 "
         class="fil0"
         style="clip-rule:evenodd;fill:#155acb;fill-opacity:0.992157;fill-rule:evenodd;image-rendering:optimizeQuality;shape-rendering:geometricPrecision;text-rendering:geometricPrecision"
         transform="matrix(0.00106002,0,0,0.00106002,147.54315,41.236294)" />
      <polygon
         transform="matrix(0.00222069,0,0,0.00222069,154.97042,43.333102)"
         style="clip-rule:evenodd;fill:#02ac86;fill-opacity:0.992157;fill-rule:evenodd;image-rendering:optimizeQuality;shape-rendering:geometricPrecision;text-rendering:geometricPrecision"
         class="fil0"
         points="8467,4233 6350,6350 4233,8467 2117,6350 0,4233 2117,2117 4233,0 6350,2117 "
         id="polygon2643" />
      <polygon
         id="polygon2645"
         points="6350,6350 4233,8467 2117,6350 0,4233 2117,2117 4233,0 6350,2117 8467,4233 "
         class="fil0"
         style="clip-rule:evenodd;fill:#dca600;fill-opacity:0.984314;fill-rule:evenodd;image-rendering:optimizeQuality;shape-rendering:geometricPrecision;text-rendering:geometricPrecision"
         transform="matrix(0.00177428,0,0,0.00177428,121.14641,42.822779)" />
    </g>
  </g>
</svg>
